<svg xmlns="http://www.w3.org/2000/svg" width="420mm" height="297mm" viewBox="0 0 420 297"><rect width="420" height="297" fill="white"/><metadata>{&quot;asset_id&quot;: &quot;gen-street-lamp-1&quot;, &quot;geometry_sha256&quot;: &quot;C28C2A5280E565120E1D26DAD33A39044D57BE6D15DE3CC26CA5934D8D912B62&quot;, &quot;model_sha256&quot;: &quot;D1D33284969B2470C2C65E4CD569B208FBBC331061C162943509AB6AABC956E7&quot;, &quot;units&quot;: &quot;mm&quot;, &quot;input_units&quot;: &quot;mm&quot;, &quot;input_up_axis&quot;: &quot;y&quot;, &quot;coordinate_transform&quot;: &quot;X,-Z,Y&quot;, &quot;view_axes&quot;: {&quot;plan&quot;: &quot;X,Y&quot;, &quot;front&quot;: &quot;X,Z; looking +Y&quot;, &quot;right&quot;: &quot;-Y,Z; looking -X&quot;}, &quot;dimension_basis&quot;: &quot;measured_mesh_geometry&quot;, &quot;engine_version&quot;: 2, &quot;method&quot;: &quot;triangle_union_or_dense_mesh_raster_projection; see per-view method and resolution&quot;, &quot;source_references&quot;: [], &quot;reference_relationship_scope&quot;: &quot;attached_to_this_drawing; not original mesh-generation inputs&quot;, &quot;created_at&quot;: &quot;2026-09-19T01:55:52.682767+00:00&quot;, &quot;attribution&quot;: &quot;Almond generated asset library&quot;, &quot;derived_asset_license&quot;: &quot;CC-BY-4.0&quot;, &quot;generation_record&quot;: {&quot;asset_id&quot;: &quot;gen-street-lamp-1&quot;, &quot;name&quot;: &quot;Street lamp&quot;, &quot;model_file&quot;: &quot;models/gen-street-lamp-1.glb&quot;, &quot;model_sha256&quot;: &quot;D1D33284969B2470C2C65E4CD569B208FBBC331061C162943509AB6AABC956E7&quot;, &quot;contract_file&quot;: &quot;models/gen-street-lamp-1.almond.json&quot;, &quot;contract_sha256&quot;: &quot;E12B90820DBD8137BB26A9C2E96A8C14921DDE5A33FA0E36FCDE485C8E341377&quot;, &quot;generator&quot;: &quot;meshy&quot;, &quot;recorded_generation&quot;: {&quot;prompt&quot;: &quot;A modern single-arm street lamp post, tall slender cylindrical pole with a flat LED luminaire on a short horizontal arm at the top, small base plate, plain matte dark grey.&quot;, &quot;image_task_id&quot;: &quot;01a09788-1b92-70f7-9723-f979b9bd5d8f&quot;, &quot;image_model&quot;: &quot;nano-banana&quot;, &quot;mesh_task_id&quot;: &quot;01a0978d-f18b-75a9-841a-5f4713d5d66f&quot;, &quot;mesh_model&quot;: &quot;meshy-t2 smart-topology (untextured)&quot;, &quot;generated_at&quot;: &quot;2026-09-12&quot;, &quot;orientation_correction&quot;: &quot;rotated_90_about_vertical&quot;, &quot;scale_applied&quot;: 2647.058749}, &quot;recorded_task_history&quot;: {&quot;image_model&quot;: &quot;nano-banana&quot;, &quot;image_task_id&quot;: &quot;01a09788-1b92-70f7-9723-f979b9bd5d8f&quot;, &quot;mesh_model&quot;: &quot;meshy-t2 smart-topology (untextured)&quot;, &quot;mesh_task_id&quot;: &quot;01a0978d-f18b-75a9-841a-5f4713d5d66f&quot;, &quot;generated_at&quot;: &quot;2026-09-12&quot;}, &quot;image_generation&quot;: {&quot;provider&quot;: &quot;meshy&quot;, &quot;provider_basis&quot;: &quot;catalogue_image_stage_tool&quot;, &quot;id&quot;: &quot;01a09788-1b92-70f7-9723-f979b9bd5d8f&quot;, &quot;id_type&quot;: &quot;image_task_id&quot;, &quot;source_image_url_recorded&quot;: false, &quot;source_image_url_policy&quot;: &quot;Consult original provenance when needed; account-scoped URLs omitted here.&quot;}, &quot;catalogue_recipe_override&quot;: null, &quot;recipe_evidence&quot;: &quot;catalogue.json#/generation_recipe; recipe intent, not a captured API request&quot;, &quot;external_reference_status&quot;: &quot;not_recorded_in_legacy_generation_evidence&quot;, &quot;external_reference_ids&quot;: [], &quot;evidence_gaps&quot;: [&quot;Exact submitted request, seed and complete per-task settings are not captured in this register.&quot;, &quot;Input image bytes and checksum are not linked in this register; provider task/job ID is retained.&quot;, &quot;External design references are not recorded; absence of records does not establish no references were used.&quot;], &quot;declared_license&quot;: &quot;CC-BY-4.0&quot;, &quot;rights_evidence&quot;: &quot;Existing manifest declaration; generating account entitlement not independently verified by this audit.&quot;, &quot;missing_recorded_fields&quot;: []}, &quot;limitations&quot;: [&quot;Projected silhouettes only: internal visible/hidden edges and construction layers are not inferred.&quot;, &quot;Front is the declared coordinate direction, not a verified product front.&quot;, &quot;Dimensions describe mesh geometry, not a manufacturer-verified product.&quot;], &quot;drawing_views&quot;: [{&quot;view&quot;: &quot;plan&quot;, &quot;bounds_mm&quot;: [-159.85107367947327, -720.7031521179214, 159.8510736794731, 720.7031521179214], &quot;method&quot;: &quot;projected_triangle_union&quot;, &quot;raster_pixel_mm&quot;: null, &quot;approximation_note&quot;: null, &quot;precision_grid_mm&quot;: 0.01, &quot;simplification_tolerance_mm&quot;: 2.5, &quot;area_mm2&quot;: 355501.94820000004, &quot;deviation_basis&quot;: &quot;topology_preserving_simplification_tolerance_not_independently_measured&quot;}, {&quot;view&quot;: &quot;front&quot;, &quot;bounds_mm&quot;: [-159.85107367947327, 0.0, 159.8510736794731, 4500.0], &quot;method&quot;: &quot;projected_triangle_union&quot;, &quot;raster_pixel_mm&quot;: null, &quot;approximation_note&quot;: null, &quot;precision_grid_mm&quot;: 0.01, &quot;simplification_tolerance_mm&quot;: 2.5, &quot;area_mm2&quot;: 443192.2802500001, &quot;deviation_basis&quot;: &quot;topology_preserving_simplification_tolerance_not_independently_measured&quot;}, {&quot;view&quot;: &quot;right&quot;, &quot;bounds_mm&quot;: [-720.7031521179214, 0.0, 720.7031521179214, 4500.0], &quot;method&quot;: &quot;projected_triangle_union&quot;, &quot;raster_pixel_mm&quot;: null, &quot;approximation_note&quot;: null, &quot;precision_grid_mm&quot;: 0.01, &quot;simplification_tolerance_mm&quot;: 2.5, &quot;area_mm2&quot;: 466391.17644999956, &quot;deviation_basis&quot;: &quot;topology_preserving_simplification_tolerance_not_independently_measured&quot;}]}</metadata><g font-family="Arial, sans-serif" fill="#20252b"><text x="15" y="21" font-size="6">ALMOND / Street lamp</text><text x="15" y="30" font-size="3.5">Mesh silhouettes / 1:50 / measured geometry / mm</text><text x="15" y="48" font-size="4">PLAN</text><path d="M 69.78640,83.57626 L 70.00620,73.01286 L 70.10500,71.20566 L 70.60380,66.17166 L 69.76440,65.25106 L 69.52280,64.76766 L 69.30300,63.75686 L 69.32500,63.14166 L 69.72040,61.95506 L 70.02800,61.47166 L 70.73120,60.82766 L 70.70920,58.08786 L 71.94740,58.08786 L 72.47040,58.00006 L 74.37860,58.08786 L 74.36220,60.82946 L 75.07080,61.55966 L 75.33440,62.04306 L 75.65300,63.09766 L 75.69700,64.15226 L 75.58720,64.67966 L 75.33440,65.20706 L 75.09280,65.55866 L 74.46300,66.17546 L 74.96100,71.13966 L 75.15860,74.72126 L 75.31260,83.57626 L 75.22460,84.63086 L 75.02680,85.42186 L 74.54340,86.21286 L 74.09300,86.56446 L 73.12080,86.82806 L 71.92600,86.82806 L 71.47820,86.74026 L 70.63240,86.30086 L 70.14900,85.68546 L 69.87420,84.89446 L 69.78640,83.57626 Z M 70.41100,68.33206 L 70.41080,68.33186 L 70.41060,68.33566 L 70.41100,68.33206 Z M 70.46020,61.20846 L 70.73360,61.24626 L 70.73360,61.24606 L 70.46020,61.20846 Z M 72.21760,63.07906 L 72.21740,63.07906 L 72.21360,63.08966 L 72.21760,63.07906 Z M 74.53240,63.36126 L 74.34640,63.38586 L 74.34640,63.38606 L 74.53240,63.36126 Z M 73.32180,63.49406 L 73.33500,63.62506 L 73.32200,63.49426 L 73.32180,63.49406 Z M 73.43640,63.46306 L 73.43620,63.46286 L 73.38980,63.44926 L 73.43640,63.46306 Z M 75.41400,64.77066 L 74.37980,64.92506 L 74.37980,64.92526 L 75.41400,64.77066 Z" fill="none" stroke="#111" stroke-width="0.25"/><text x="15" y="251" font-size="3">Extent 319.7 x 1441.4 mm</text><text x="145" y="48" font-size="4">FRONT</text><path d="M 199.47540,147.82760 L 199.88020,147.87280 L 200.05000,147.64840 L 200.46760,147.64840 L 200.51140,147.82420 L 200.97300,147.82420 L 201.06080,147.64840 L 201.48940,147.64840 L 201.55880,63.97660 L 199.91820,63.97660 L 199.79740,63.80080 L 199.78640,62.92180 L 199.94020,62.74600 L 200.77520,62.74600 L 200.96200,62.57040 L 201.57140,62.59740 L 201.73640,59.23040 L 201.70900,58.00000 L 203.32940,58.00000 L 203.30740,59.23040 L 203.47780,62.57040 L 204.27980,62.57040 L 204.33480,62.74600 L 205.11480,62.74600 L 205.26860,62.92180 L 205.31260,63.80080 L 205.13680,63.97660 L 203.48120,63.97660 L 203.40640,113.81060 L 203.46680,147.82420 L 203.56560,147.64840 L 204.02700,147.64840 L 204.13700,147.82420 L 204.57640,147.82420 L 204.84000,147.47260 L 204.98300,147.64840 L 205.08180,147.64840 L 205.16960,147.82420 L 205.67500,147.82420 L 205.69700,148.00000 L 199.30300,148.00000 L 199.47540,147.82760 Z M 202.51860,61.60420 L 202.51880,61.60640 L 202.51860,61.60120 L 202.51860,61.60420 Z M 203.27360,58.03760 L 203.27360,58.03780 L 203.27380,58.03740 L 203.27360,58.03760 Z" fill="none" stroke="#111" stroke-width="0.25"/><text x="145" y="251" font-size="3">Extent 319.7 x 4500.0 mm</text><text x="275" y="48" font-size="4">RIGHT</text><path d="M 320.37100,147.82420 L 321.16220,147.82420 L 321.16220,147.64840 L 321.86520,147.64840 L 322.00540,147.86900 L 323.05180,147.82420 L 323.13960,113.76660 L 323.13960,69.25000 L 323.06600,63.80080 L 322.06300,63.80080 L 322.04100,63.97660 L 321.79300,63.81120 L 321.68940,63.97660 L 321.57220,63.84260 L 321.33780,63.97660 L 321.00840,63.93280 L 320.89840,64.15240 L 320.86920,64.09380 L 320.81060,64.15240 L 320.72260,63.93260 L 320.45900,63.80080 L 320.10740,63.97660 L 319.84380,63.97660 L 319.75580,63.80080 L 318.17380,63.80080 L 318.17380,63.09760 L 318.08600,62.92180 L 318.26180,62.57040 L 323.06840,62.57880 L 323.18360,60.28520 L 323.18360,58.87900 L 323.09580,58.17580 L 323.18360,58.00000 L 324.76560,58.00000 L 324.85360,58.17580 L 324.80960,58.70320 L 324.89740,60.46100 L 326.00980,62.74600 L 346.73820,62.74600 L 346.91400,63.27340 L 346.91400,63.80080 L 346.73820,63.97660 L 330.84100,63.97660 L 329.51280,63.87080 L 328.76460,63.97660 L 327.05240,63.81340 L 326.39160,64.15240 L 326.09860,64.06220 L 325.95220,64.15240 L 325.46880,64.15240 L 325.42480,63.97660 L 324.92480,63.97660 L 324.85360,69.25000 L 324.72160,147.82420 L 325.55660,147.82420 L 325.60060,147.64840 L 326.21580,147.64840 L 326.30380,147.82420 L 327.00680,147.82420 L 327.05080,148.00000 L 320.28320,148.00000 L 320.37100,147.82420 Z M 324.87540,61.60340 L 325.71200,62.74600 L 325.73240,62.74600 L 324.87540,61.60340 Z M 324.91340,62.07300 L 324.94140,62.74600 L 325.54040,62.74600 L 324.91340,62.07300 Z M 324.69960,130.94040 L 324.69960,130.91540 L 324.69940,130.96040 L 324.69960,130.94040 Z" fill="none" stroke="#111" stroke-width="0.25"/><text x="275" y="251" font-size="3">Extent 1441.4 x 4500.0 mm</text><text x="15" y="263" font-size="2.7">Source: gen-street-lamp-1 / geometry C28C2A5280E56512</text><text x="15" y="270" font-size="2.7">Outlines only. Dense meshes use raster approximation; see manifest. Front requires review.</text><text x="15" y="277" font-size="2.7">Print at 100% / actual size. This calibration line must measure 50 mm on paper.</text><path d="M 15 285 H 65 M 15 283 V 287 M 65 283 V 287" stroke="#111" stroke-width="0.25" fill="none"/></g></svg>