<svg xmlns="http://www.w3.org/2000/svg" width="27.57422mm" height="26.62891mm" viewBox="0 0 27.57422 26.62891"><metadata>{&quot;asset_id&quot;: &quot;gen-office-chair-1&quot;, &quot;geometry_sha256&quot;: &quot;7C5A999A2362B83642D6808286D1753C4E805B0DDC0B9469996F594AFBB20180&quot;, &quot;model_sha256&quot;: &quot;290B51B30E4DB2DA0405D71AA7C08A93CCE42EB9DF33DD70F76D863D82F02CB3&quot;, &quot;units&quot;: &quot;mm&quot;, &quot;input_units&quot;: &quot;mm&quot;, &quot;input_up_axis&quot;: &quot;y&quot;, &quot;coordinate_transform&quot;: &quot;X,-Z,Y&quot;, &quot;view_axes&quot;: {&quot;plan&quot;: &quot;X,Y&quot;, &quot;front&quot;: &quot;X,Z; looking +Y&quot;, &quot;right&quot;: &quot;-Y,Z; looking -X&quot;}, &quot;dimension_basis&quot;: &quot;measured_mesh_geometry&quot;, &quot;engine_version&quot;: 2, &quot;method&quot;: &quot;triangle_union_or_dense_mesh_raster_projection; see per-view method and resolution&quot;, &quot;source_references&quot;: [], &quot;reference_relationship_scope&quot;: &quot;attached_to_this_drawing; not original mesh-generation inputs&quot;, &quot;created_at&quot;: &quot;2026-09-19T01:55:25.064404+00:00&quot;, &quot;attribution&quot;: &quot;Almond generated asset library&quot;, &quot;derived_asset_license&quot;: &quot;CC-BY-4.0&quot;, &quot;generation_record&quot;: {&quot;asset_id&quot;: &quot;gen-office-chair-1&quot;, &quot;name&quot;: &quot;Office chair&quot;, &quot;model_file&quot;: &quot;models/gen-office-chair-1.glb&quot;, &quot;model_sha256&quot;: &quot;290B51B30E4DB2DA0405D71AA7C08A93CCE42EB9DF33DD70F76D863D82F02CB3&quot;, &quot;contract_file&quot;: &quot;models/gen-office-chair-1.almond.json&quot;, &quot;contract_sha256&quot;: &quot;8F76CAB0E56EFBD881A627C23370B282F2D2AF7D6793F94DB682811E6848C66B&quot;, &quot;generator&quot;: &quot;meshy&quot;, &quot;recorded_generation&quot;: {&quot;prompt&quot;: &quot;A generic black swivel office task chair with a padded seat, mesh backrest, armrests and a five-star base on castors.&quot;, &quot;image_task_id&quot;: &quot;01a09789-5785-7773-8dcc-ed507a95c80a&quot;, &quot;image_model&quot;: &quot;nano-banana&quot;, &quot;mesh_task_id&quot;: &quot;01a0978f-4e8d-707c-a258-c9b3897bfcad&quot;, &quot;mesh_model&quot;: &quot;meshy-t2 smart-topology (untextured)&quot;, &quot;generated_at&quot;: &quot;2026-09-12&quot;, &quot;orientation_correction&quot;: null, &quot;scale_applied&quot;: 1100.0}, &quot;recorded_task_history&quot;: {&quot;image_model&quot;: &quot;nano-banana&quot;, &quot;image_task_id&quot;: &quot;01a09789-5785-7773-8dcc-ed507a95c80a&quot;, &quot;mesh_model&quot;: &quot;meshy-t2 smart-topology (untextured)&quot;, &quot;mesh_task_id&quot;: &quot;01a0978f-4e8d-707c-a258-c9b3897bfcad&quot;, &quot;generated_at&quot;: &quot;2026-09-12&quot;}, &quot;image_generation&quot;: {&quot;provider&quot;: &quot;meshy&quot;, &quot;provider_basis&quot;: &quot;catalogue_image_stage_tool&quot;, &quot;id&quot;: &quot;01a09789-5785-7773-8dcc-ed507a95c80a&quot;, &quot;id_type&quot;: &quot;image_task_id&quot;, &quot;source_image_url_recorded&quot;: false, &quot;source_image_url_policy&quot;: &quot;Consult original provenance when needed; account-scoped URLs omitted here.&quot;}, &quot;catalogue_recipe_override&quot;: null, &quot;recipe_evidence&quot;: &quot;catalogue.json#/generation_recipe; recipe intent, not a captured API request&quot;, &quot;external_reference_status&quot;: &quot;not_recorded_in_legacy_generation_evidence&quot;, &quot;external_reference_ids&quot;: [], &quot;evidence_gaps&quot;: [&quot;Exact submitted request, seed and complete per-task settings are not captured in this register.&quot;, &quot;Input image bytes and checksum are not linked in this register; provider task/job ID is retained.&quot;, &quot;External design references are not recorded; absence of records does not establish no references were used.&quot;], &quot;declared_license&quot;: &quot;CC-BY-4.0&quot;, &quot;rights_evidence&quot;: &quot;Existing manifest declaration; generating account entitlement not independently verified by this audit.&quot;, &quot;missing_recorded_fields&quot;: []}, &quot;limitations&quot;: [&quot;Projected silhouettes only: internal visible/hidden edges and construction layers are not inferred.&quot;, &quot;Front is the declared coordinate direction, not a verified product front.&quot;, &quot;Dimensions describe mesh geometry, not a manufacturer-verified product.&quot;], &quot;drawing_view&quot;: {&quot;view&quot;: &quot;plan&quot;, &quot;bounds_mm&quot;: [-439.35546875, -415.72265625, 439.35546875, 415.72265625], &quot;method&quot;: &quot;projected_triangle_union&quot;, &quot;raster_pixel_mm&quot;: null, &quot;approximation_note&quot;: null, &quot;precision_grid_mm&quot;: 0.01, &quot;simplification_tolerance_mm&quot;: 2.5, &quot;area_mm2&quot;: 480424.6765500001, &quot;deviation_basis&quot;: &quot;topology_preserving_simplification_tolerance_not_independently_measured&quot;}}</metadata><title>gen-office-chair-1 / plan / 1:50</title><path d="M 7.53511,18.92185 L 7.44911,18.21225 L 5.94531,18.19145 L 5.73051,17.97665 L 5.73051,13.06465 L 6.03131,12.85525 L 7.67251,12.81345 L 7.69871,12.62745 L 6.31371,12.19685 L 6.20311,12.47125 L 6.07431,12.52485 L 4.99991,12.05765 L 5.30071,11.21965 L 6.46091,11.69245 L 6.46511,11.82105 L 7.76711,12.13865 L 8.09371,10.61825 L 8.33451,10.24825 L 8.45891,9.72665 L 8.84571,7.27725 L 9.10351,6.84765 L 9.42571,6.58985 L 11.27351,6.07425 L 12.42291,5.90225 L 13.32171,5.87345 L 13.39511,5.00005 L 14.09331,5.04305 L 14.15171,5.87225 L 15.08691,5.90225 L 17.03131,6.24605 L 17.67571,6.46085 L 18.23431,6.76165 L 18.53511,7.01945 L 19.18711,10.30985 L 19.43751,10.66105 L 19.73831,11.66025 L 19.79951,12.14085 L 21.10871,11.82125 L 21.07031,11.63865 L 22.27351,11.27345 L 22.57431,12.06845 L 21.54291,12.48725 L 21.32811,12.48185 L 21.22891,12.18245 L 19.85871,12.60765 L 19.88531,12.81665 L 21.58591,12.87125 L 21.75791,12.93305 L 21.84371,13.07805 L 21.84371,17.93365 L 21.71491,18.12685 L 21.58591,18.16985 L 20.08211,18.21285 L 19.99611,18.92185 L 19.82431,19.48045 L 19.56631,19.82425 L 19.20111,20.08205 L 18.69231,20.21765 L 19.35151,20.89845 L 19.39451,21.07025 L 18.70711,21.58585 L 17.86911,20.64065 L 18.04391,20.46025 L 17.98471,20.38265 L 16.73051,20.59765 L 13.74531,20.76945 L 10.71491,20.59765 L 9.57231,20.37545 L 9.48451,20.49185 L 9.68351,20.59765 L 9.61911,20.72665 L 8.82431,21.62885 L 8.17971,21.07025 L 8.37311,20.72665 L 8.83351,20.21525 L 8.28711,20.08205 L 7.96491,19.86725 L 7.70711,19.48045 L 7.53511,18.92185 Z M 18.98551,9.97985 L 18.98531,9.97965 L 18.98531,9.97985 L 18.98551,9.97985 Z M 17.17111,6.40165 L 17.17111,6.40145 L 17.17011,6.40125 L 17.17111,6.40165 Z M 21.82251,15.42325 L 21.82231,15.42625 L 21.82251,15.43105 L 21.82251,15.42325 Z" fill="none" stroke="#111" stroke-width="0.25"/></svg>