<svg xmlns="http://www.w3.org/2000/svg" width="18.31445mm" height="21.00000mm" viewBox="0 0 18.31445 21.00000"><metadata>{&quot;asset_id&quot;: &quot;gen-office-chair-1&quot;, &quot;geometry_sha256&quot;: &quot;7C5A999A2362B83642D6808286D1753C4E805B0DDC0B9469996F594AFBB20180&quot;, &quot;model_sha256&quot;: &quot;290B51B30E4DB2DA0405D71AA7C08A93CCE42EB9DF33DD70F76D863D82F02CB3&quot;, &quot;units&quot;: &quot;mm&quot;, &quot;input_units&quot;: &quot;mm&quot;, &quot;input_up_axis&quot;: &quot;y&quot;, &quot;coordinate_transform&quot;: &quot;X,-Z,Y&quot;, &quot;view_axes&quot;: {&quot;plan&quot;: &quot;X,Y&quot;, &quot;front&quot;: &quot;X,Z; looking +Y&quot;, &quot;right&quot;: &quot;-Y,Z; looking -X&quot;}, &quot;dimension_basis&quot;: &quot;measured_mesh_geometry&quot;, &quot;engine_version&quot;: 2, &quot;method&quot;: &quot;triangle_union_or_dense_mesh_raster_projection; see per-view method and resolution&quot;, &quot;source_references&quot;: [], &quot;reference_relationship_scope&quot;: &quot;attached_to_this_drawing; not original mesh-generation inputs&quot;, &quot;created_at&quot;: &quot;2026-09-19T01:55:25.064404+00:00&quot;, &quot;attribution&quot;: &quot;Almond generated asset library&quot;, &quot;derived_asset_license&quot;: &quot;CC-BY-4.0&quot;, &quot;generation_record&quot;: {&quot;asset_id&quot;: &quot;gen-office-chair-1&quot;, &quot;name&quot;: &quot;Office chair&quot;, &quot;model_file&quot;: &quot;models/gen-office-chair-1.glb&quot;, &quot;model_sha256&quot;: &quot;290B51B30E4DB2DA0405D71AA7C08A93CCE42EB9DF33DD70F76D863D82F02CB3&quot;, &quot;contract_file&quot;: &quot;models/gen-office-chair-1.almond.json&quot;, &quot;contract_sha256&quot;: &quot;8F76CAB0E56EFBD881A627C23370B282F2D2AF7D6793F94DB682811E6848C66B&quot;, &quot;generator&quot;: &quot;meshy&quot;, &quot;recorded_generation&quot;: {&quot;prompt&quot;: &quot;A generic black swivel office task chair with a padded seat, mesh backrest, armrests and a five-star base on castors.&quot;, &quot;image_task_id&quot;: &quot;01a09789-5785-7773-8dcc-ed507a95c80a&quot;, &quot;image_model&quot;: &quot;nano-banana&quot;, &quot;mesh_task_id&quot;: &quot;01a0978f-4e8d-707c-a258-c9b3897bfcad&quot;, &quot;mesh_model&quot;: &quot;meshy-t2 smart-topology (untextured)&quot;, &quot;generated_at&quot;: &quot;2026-09-12&quot;, &quot;orientation_correction&quot;: null, &quot;scale_applied&quot;: 1100.0}, &quot;recorded_task_history&quot;: {&quot;image_model&quot;: &quot;nano-banana&quot;, &quot;image_task_id&quot;: &quot;01a09789-5785-7773-8dcc-ed507a95c80a&quot;, &quot;mesh_model&quot;: &quot;meshy-t2 smart-topology (untextured)&quot;, &quot;mesh_task_id&quot;: &quot;01a0978f-4e8d-707c-a258-c9b3897bfcad&quot;, &quot;generated_at&quot;: &quot;2026-09-12&quot;}, &quot;image_generation&quot;: {&quot;provider&quot;: &quot;meshy&quot;, &quot;provider_basis&quot;: &quot;catalogue_image_stage_tool&quot;, &quot;id&quot;: &quot;01a09789-5785-7773-8dcc-ed507a95c80a&quot;, &quot;id_type&quot;: &quot;image_task_id&quot;, &quot;source_image_url_recorded&quot;: false, &quot;source_image_url_policy&quot;: &quot;Consult original provenance when needed; account-scoped URLs omitted here.&quot;}, &quot;catalogue_recipe_override&quot;: null, &quot;recipe_evidence&quot;: &quot;catalogue.json#/generation_recipe; recipe intent, not a captured API request&quot;, &quot;external_reference_status&quot;: &quot;not_recorded_in_legacy_generation_evidence&quot;, &quot;external_reference_ids&quot;: [], &quot;evidence_gaps&quot;: [&quot;Exact submitted request, seed and complete per-task settings are not captured in this register.&quot;, &quot;Input image bytes and checksum are not linked in this register; provider task/job ID is retained.&quot;, &quot;External design references are not recorded; absence of records does not establish no references were used.&quot;], &quot;declared_license&quot;: &quot;CC-BY-4.0&quot;, &quot;rights_evidence&quot;: &quot;Existing manifest declaration; generating account entitlement not independently verified by this audit.&quot;, &quot;missing_recorded_fields&quot;: []}, &quot;limitations&quot;: [&quot;Projected silhouettes only: internal visible/hidden edges and construction layers are not inferred.&quot;, &quot;Front is the declared coordinate direction, not a verified product front.&quot;, &quot;Dimensions describe mesh geometry, not a manufacturer-verified product.&quot;], &quot;drawing_view&quot;: {&quot;view&quot;: &quot;right&quot;, &quot;bounds_mm&quot;: [-415.72265625, 0.0, 415.72265625, 1100.0], &quot;method&quot;: &quot;projected_triangle_union&quot;, &quot;raster_pixel_mm&quot;: null, &quot;approximation_note&quot;: null, &quot;precision_grid_mm&quot;: 0.01, &quot;simplification_tolerance_mm&quot;: 5.0, &quot;area_mm2&quot;: 213726.5172, &quot;deviation_basis&quot;: &quot;topology_preserving_simplification_tolerance_not_independently_measured&quot;}}</metadata><title>gen-office-chair-1 / right / 1:100</title><path d="M 5.21483,16.00000 L 5.00003,15.76370 L 5.08593,15.61330 L 5.19333,15.46290 L 5.55203,15.48280 L 5.49413,15.39840 L 5.51563,14.96870 L 5.62303,14.90430 L 9.22773,14.10940 L 9.18193,13.22850 L 9.33293,13.23710 L 9.31503,13.02440 L 9.41753,13.01850 L 9.41253,12.47940 L 8.64163,12.59470 L 8.28713,12.14360 L 7.73923,11.91800 L 7.64133,11.75670 L 7.09473,11.86430 L 6.89063,11.80520 L 6.77243,11.63870 L 6.76173,11.32710 L 6.79393,11.03170 L 6.93363,10.85180 L 7.54593,10.66250 L 9.25403,10.58140 L 9.65143,9.08300 L 9.30093,8.74900 L 8.95313,8.73830 L 8.98263,8.56640 L 11.59573,8.59860 L 11.58493,8.74900 L 10.73923,8.79790 L 10.40463,9.08070 L 9.92493,10.55540 L 11.63863,10.51390 L 12.26173,10.64900 L 12.79883,11.09350 L 12.88473,11.34860 L 12.86333,11.59030 L 12.79883,11.74610 L 12.66993,11.79440 L 11.58433,11.58190 L 11.45603,11.82130 L 10.75473,12.12700 L 10.98343,12.80960 L 10.52153,13.01370 L 10.25113,12.30830 L 9.61593,12.44780 L 9.73783,13.23220 L 9.87163,13.23930 L 9.85543,14.10940 L 12.82033,14.90430 L 12.84183,15.44140 L 13.16403,15.48440 L 13.29293,15.63480 L 13.31443,15.78520 L 13.16403,16.00000 L 12.66993,16.00000 L 12.58403,15.93550 L 12.51953,15.78520 L 12.56253,15.63480 L 12.75403,15.37700 L 9.87693,14.81840 L 9.78293,14.81840 L 9.73463,15.57030 L 9.28683,15.57030 L 9.26473,14.96550 L 8.54903,15.38860 L 8.53523,15.46290 L 8.68193,15.48440 L 8.73833,15.65620 L 8.69533,16.00000 L 8.48853,16.00000 L 8.44483,15.86130 L 8.39993,16.00000 L 8.20653,16.00000 L 8.10983,15.80660 L 8.18503,15.48440 L 8.43693,15.46290 L 8.37843,14.99020 L 8.44583,14.90220 L 5.64453,15.35550 L 5.70903,15.76370 L 5.64453,15.89260 L 5.53713,16.00000 L 5.21483,16.00000 Z M 5.06923,15.74680 L 5.08593,15.65620 L 5.16063,15.56000 L 5.08593,15.61330 L 5.06923,15.74680 Z M 5.64453,15.63480 L 5.65543,15.68880 L 5.68753,15.76370 L 5.64453,15.63480 Z M 5.63263,15.62050 L 5.63383,15.62410 L 5.64453,15.63480 L 5.63263,15.62050 Z M 5.55683,15.53050 L 5.55673,15.52940 L 5.53713,15.50590 L 5.55683,15.53050 Z M 5.58483,15.56310 L 5.58003,15.55950 L 5.59433,15.57460 L 5.58483,15.56310 Z M 5.56373,15.27380 L 5.56383,15.27430 L 5.56383,15.27350 L 5.56373,15.27380 Z M 6.96883,11.71230 L 6.96873,11.71220 L 6.96873,11.71230 L 6.96883,11.71230 Z M 8.27163,11.63270 L 8.70823,11.60710 L 8.43213,11.60110 L 8.27163,11.63270 Z M 6.30333,10.70690 L 6.53683,10.56450 L 6.93363,9.85550 L 7.07323,9.23780 L 7.01953,8.97460 L 6.74023,8.70610 L 6.98733,8.46970 L 6.97653,8.29790 L 6.55763,7.23440 L 5.61743,5.25500 L 5.49413,5.21480 L 5.42973,5.08590 L 5.49413,5.00000 L 5.90233,5.00000 L 6.18163,5.25780 L 7.49223,7.86820 L 7.80373,8.80270 L 7.69633,9.44730 L 7.25583,10.26370 L 6.80473,10.74840 L 6.35353,10.97270 L 6.18163,10.89210 L 6.30333,10.70690 Z" fill="none" stroke="#111" stroke-width="0.25"/></svg>